<svg width="28" height="28" viewBox="0 0 28 28" fill="none" xmlns="http://www.w3.org/2000/svg">
<path d="M16.4106 6.23219V12.4447C16.4106 12.6722 16.2269 12.8559 16.0081 12.8559H12.0006C11.7731 12.8559 11.5894 12.6722 11.5894 12.4447V6.23219C11.5894 6.10094 11.4844 5.98719 11.3444 5.98719H10.4869C9.94438 5.98719 9.65563 5.33969 10.0231 4.93719L13.5406 1.07844C13.7944 0.807187 14.2231 0.807187 14.4681 1.07844L17.9769 4.93719C18.3444 5.33969 18.0556 5.98719 17.5131 5.98719H16.6556C16.5244 5.98719 16.4106 6.09219 16.4106 6.23219Z" fill="#9F50E9"/>
<path d="M7.18375 5.36589H8.9814C8.99026 6.13508 9.59721 6.86219 10.4869 6.86219H10.7144V7.11589H7.18375C5.635 7.11589 4.375 8.37589 4.375 9.92464V18.9634C4.375 20.5121 5.635 21.7722 7.18375 21.7722H10.115C10.3338 21.7722 10.5438 21.8772 10.6663 22.0522C11.4363 23.1547 12.7138 23.8809 14.1663 23.8809C15.6188 23.8809 16.8963 23.1547 17.6663 22.0522C17.7888 21.8772 17.9988 21.7722 18.2175 21.7722H21.1488C22.6965 21.7722 23.9558 20.5138 23.9575 18.9665V9.92464C23.94 8.37589 22.6888 7.11589 21.1312 7.11589H17.2856V6.86219H17.5131C18.4028 6.86219 19.0098 6.13508 19.0186 5.36589H21.1312C23.6625 5.36589 25.6792 7.41244 25.7074 9.90487L25.7075 9.91475V22.5158C25.7075 25.0318 23.6627 27.0746 21.1475 27.0746H7.18501C4.6698 27.0746 2.625 25.0318 2.625 22.5158V9.92464C2.625 7.40939 4.6685 5.36589 7.18375 5.36589Z" fill="#9F50E9"/>
<path d="M8.78501 9.34718H10.7144V10.2222H8.78501C8.07826 10.2222 7.49876 10.8017 7.49876 11.5084V17.4672C7.49876 18.1739 8.07826 18.7534 8.78501 18.7534H11.48C12.2239 18.7534 12.8117 19.2715 12.983 19.9329C13.1224 20.4624 13.5985 20.8447 14.1575 20.8447C14.7228 20.8447 15.1997 20.457 15.3304 19.9393L15.3313 19.9355C15.5017 19.2729 16.0902 18.7534 16.835 18.7534H19.53C20.2368 18.7534 20.8163 18.1739 20.8163 17.4672V11.5084C20.8163 10.7994 20.2432 10.2222 19.53 10.2222H17.2856V9.34718H19.53C20.7288 9.34718 21.6913 10.3184 21.6913 11.5084V17.4672C21.6913 18.6572 20.72 19.6284 19.53 19.6284H16.835C16.52 19.6284 16.2575 19.8472 16.1788 20.1534C15.9513 21.0547 15.1288 21.7197 14.1575 21.7197C13.1863 21.7197 12.3725 21.0547 12.1363 20.1534C12.0575 19.8472 11.795 19.6284 11.48 19.6284H8.78501C7.59501 19.6284 6.62376 18.6572 6.62376 17.4672V11.5084C6.62376 10.3184 7.59501 9.34718 8.78501 9.34718Z" fill="#9F50E9"/>
</svg>
