<svg width="269" height="70" viewBox="0 0 269 70" fill="none" xmlns="http://www.w3.org/2000/svg">
<path d="M43.5548 69.4863H8.78593V50.6143H0L12.4359 19.2316L12.4877 19.1279C15.3411 13.4671 19.6922 8.69102 25.0692 5.31127C30.6018 1.8362 36.9929 0 43.5531 0C62.7248 0 78.3219 15.586 78.3219 34.7423C78.3219 44.022 74.7055 52.7465 68.1386 59.3103C61.5718 65.8725 52.8411 69.4863 43.5548 69.4863ZM13.9738 64.3022H43.5548C51.4554 64.3022 58.8824 61.2268 64.4703 55.6446C70.0565 50.0607 73.1341 42.6373 73.1341 34.7423C73.1341 18.444 59.8648 5.18417 43.5548 5.18417C32.3506 5.18417 22.2527 11.3784 17.1736 21.3588L7.63455 45.4301H13.9738V64.3022Z" fill="#E2C5FD"/>
<path d="M43.4708 31.3006C37.2152 31.3006 30.958 31.3006 24.7024 31.3006C21.6348 31.3006 19.7588 28.8005 20.7947 25.9258C21.4206 24.1883 22.1854 22.4809 23.0858 20.8688C24.4112 18.4974 27.4101 18.1629 29.415 20.0142C29.8936 20.4557 30.1647 20.8704 30.1614 21.5895C30.153 23.409 31.9654 24.9492 33.7912 24.8071C35.6756 24.6599 37.1282 22.924 36.9073 21.0828C36.6713 19.1111 34.9041 17.6997 33.0147 18.0961C32.2851 18.2499 31.9704 17.9522 31.6475 17.4489C30.3371 15.407 31.0299 12.7279 33.2205 11.6694C34.3401 11.1275 35.5183 10.6693 36.7148 10.3298C39.1515 9.63749 41.6266 11.3834 41.7186 13.9052C41.819 16.6411 41.7621 19.3837 41.7471 22.123C41.7471 22.3136 41.5546 22.5394 41.394 22.6866C40.3497 23.6431 39.9447 24.8121 40.3129 26.1767C40.6827 27.5396 41.6099 28.3908 43.0089 28.6283C44.4063 28.8658 45.5526 28.3641 46.3777 27.2185C47.4621 25.7134 47.0906 23.618 45.5409 22.5344C45.1928 22.2902 45.0757 22.0427 45.079 21.6363C45.0941 19.1914 45.074 16.7448 45.0874 14.2999C45.1025 11.4101 47.7031 9.50872 50.4393 10.4118C51.5371 10.773 52.6299 11.181 53.6658 11.6877C55.9435 12.8032 56.556 15.7849 54.9745 17.7582C54.7586 18.0275 54.5411 18.1379 54.1762 18.081C52.6785 17.8435 51.266 18.5794 50.6033 19.9055C49.9456 21.2199 50.2017 22.7986 51.2392 23.8271C52.2701 24.8489 53.8332 25.1131 55.1151 24.486C56.4656 23.8254 57.222 22.4324 56.9978 20.9407C56.9476 20.6029 57.0346 20.4038 57.2722 20.1798C59.503 18.071 62.4852 18.4556 63.9328 21.1581C64.7779 22.7367 65.4992 24.4024 66.095 26.0914C67.0321 28.7504 65.1946 31.2622 62.348 31.2856C57.9132 31.3207 53.4784 31.299 49.0436 31.3006C47.1843 31.3006 45.3267 31.3006 43.4675 31.3006V31.304L43.4708 31.3006Z" fill="#E2C5FD"/>
<path d="M94.8379 20.4573V14.0454H102.155V20.4573H94.8379ZM94.8379 54.7667V25.1257H102.155V54.7667H94.8379Z" fill="#E2C5FD"/>
<path d="M110.879 54.7662V16.126H123.261L130.747 36.8241C130.972 37.499 131.254 38.3343 131.592 39.327C131.929 40.3197 132.267 41.3321 132.605 42.3642C132.942 43.3963 133.224 44.3047 133.449 45.0921H133.899C134.088 44.3806 134.33 43.5369 134.631 42.5611C134.932 41.5852 135.25 40.5925 135.588 39.5801C135.925 38.5677 136.227 37.6481 136.488 36.8241L143.974 16.126H156.188V54.7662H148.252V33.1682C148.252 32.0067 148.26 30.7975 148.28 29.5404C148.3 28.2833 148.336 27.15 148.392 26.1376C148.449 25.1252 148.477 24.4305 148.477 24.0565H148.027C147.914 24.5065 147.709 25.2095 147.407 26.1657C147.106 27.1219 146.797 28.1258 146.479 29.1748C146.161 30.2238 145.868 31.1237 145.606 31.8746L137.164 54.7662H129.622L121.123 31.9308C120.861 31.1434 120.58 30.2716 120.278 29.3154C119.977 28.3592 119.696 27.4115 119.434 26.475C119.172 25.5386 118.928 24.7315 118.702 24.0565H118.252C118.289 24.768 118.328 25.6595 118.365 26.7281C118.401 27.7968 118.429 28.8936 118.449 30.0185C118.469 31.1434 118.477 32.1923 118.477 33.1682V54.7662H110.879Z" fill="#E2C5FD"/>
<path d="M179.941 55.4411C176.452 55.4411 173.477 54.8703 171.02 53.7257C168.563 52.5811 166.706 50.8656 165.448 48.5793C164.19 46.2929 163.562 43.4047 163.562 39.9175C163.562 36.4304 164.19 33.5422 165.448 31.2558C166.706 28.9695 168.563 27.2624 171.02 26.1375C173.477 25.0126 176.452 24.4502 179.941 24.4502C183.431 24.4502 186.451 25.0126 188.89 26.1375C191.33 27.2624 193.188 28.9695 194.463 31.2558C195.737 33.5422 196.376 36.4304 196.376 39.9175C196.376 43.4047 195.737 46.2929 194.463 48.5793C193.188 50.8656 191.33 52.5811 188.89 53.7257C186.451 54.8703 183.467 55.4411 179.941 55.4411ZM179.941 49.5917C181.891 49.5917 183.524 49.2458 184.838 48.5511C186.152 47.8565 187.137 46.8272 187.793 45.4577C188.449 44.0881 188.778 42.412 188.778 40.4237V39.4676C188.778 37.4428 188.449 35.747 187.793 34.3774C187.137 33.0079 186.152 31.987 184.838 31.3121C183.524 30.6371 181.891 30.2997 179.941 30.2997C177.991 30.2997 176.359 30.6371 175.045 31.3121C173.73 31.987 172.745 33.0079 172.09 34.3774C171.434 35.747 171.105 37.4428 171.105 39.4676V40.4237C171.105 42.412 171.434 44.0881 172.09 45.4577C172.745 46.8272 173.73 47.8565 175.045 48.5511C176.359 49.2458 177.991 49.5917 179.941 49.5917Z" fill="#E2C5FD"/>
<path d="M217.37 55.4411C213.916 55.4411 211.001 54.8787 208.617 53.7538C206.234 52.6289 204.433 50.9134 203.214 48.6074C201.995 46.3014 201.385 43.4047 201.385 39.9175C201.385 36.4304 201.995 33.5422 203.214 31.2558C204.433 28.9695 206.234 27.2624 208.617 26.1375C211.001 25.0126 213.916 24.4502 217.37 24.4502C219.545 24.4502 221.535 24.7033 223.336 25.2095C225.137 25.7157 226.704 26.475 228.035 27.4874C229.367 28.4998 230.391 29.7456 231.103 31.2277C231.815 32.7098 232.172 34.4421 232.172 36.4304H224.743C224.743 35.0805 224.433 33.9471 223.814 33.0275C223.195 32.1079 222.323 31.4161 221.197 30.9465C220.071 30.4768 218.777 30.2434 217.313 30.2434C215.476 30.2434 213.936 30.5893 212.698 31.2839C211.46 31.9786 210.523 33.0079 209.884 34.3774C209.245 35.747 208.927 37.4428 208.927 39.4676V40.4237C208.927 42.412 209.245 44.0994 209.884 45.4858C210.523 46.8722 211.488 47.9128 212.782 48.6074C214.077 49.302 215.681 49.6479 217.595 49.6479C219.021 49.6479 220.296 49.4033 221.422 48.9167C222.548 48.4302 223.44 47.7159 224.095 46.7794C224.751 45.843 225.08 44.7181 225.08 43.4047H232.172C232.172 45.3536 231.806 47.0803 231.075 48.5793C230.343 50.0782 229.322 51.3353 228.007 52.3477C226.693 53.3601 225.137 54.1278 223.336 54.6537C221.535 55.1796 219.545 55.4411 217.37 55.4411Z" fill="#E2C5FD"/>
<path d="M238.477 54.7667V14.0454H245.794V38.1745L258.964 25.1257H267.801L256.488 36.7684L268.307 54.7667H259.752L251.366 41.6054L245.794 46.2175V54.7667H238.477Z" fill="#E2C5FD"/>
</svg>
