<svg width="48" height="43" viewBox="0 0 48 43" fill="none" xmlns="http://www.w3.org/2000/svg">
<path d="M26.3693 42.0691H5.31926V30.6434H0L7.52903 11.6434L7.56044 11.5806C9.28793 8.15341 11.9222 5.2618 15.1776 3.2156C18.5272 1.11169 22.3966 0 26.3683 0C37.9755 0 47.4184 9.43621 47.4184 21.034C47.4184 26.6522 45.2289 31.9343 41.2531 35.9082C37.2774 39.8811 31.9916 42.0691 26.3693 42.0691ZM8.46016 38.9304H26.3693C31.1526 38.9304 35.6492 37.0685 39.0322 33.6889C42.4143 30.3082 44.2775 25.8139 44.2775 21.034C44.2775 11.1665 36.2439 3.13865 26.3693 3.13865C19.586 3.13865 13.4724 6.88884 10.3974 12.9312L4.62218 27.5047H8.46016V38.9304Z" fill="#9F50E9"/>
<path d="M26.3175 18.9502C22.5302 18.9502 18.7419 18.9502 14.9546 18.9502C13.0974 18.9502 11.9616 17.4366 12.5888 15.6962C12.9677 14.6442 13.4307 13.6105 13.9758 12.6345C14.7783 11.1988 16.5939 10.9963 17.8077 12.1171C18.0975 12.3844 18.2616 12.6355 18.2596 13.0708C18.2545 14.1724 19.3518 15.1049 20.4572 15.0188C21.5981 14.9297 22.4775 13.8788 22.3438 12.764C22.2009 11.5703 21.131 10.7158 19.9871 10.9558C19.5453 11.0489 19.3549 10.8687 19.1593 10.564C18.366 9.32773 18.7854 7.70576 20.1117 7.06486C20.7895 6.73682 21.5028 6.45941 22.2273 6.25388C23.7025 5.83472 25.201 6.89173 25.2567 8.41853C25.3175 10.0749 25.283 11.7354 25.2739 13.3938C25.2739 13.5092 25.1574 13.6459 25.0601 13.735C24.4279 14.3141 24.1827 15.0219 24.4056 15.848C24.6295 16.6732 25.1908 17.1885 26.0379 17.3323C26.8839 17.4761 27.5779 17.1723 28.0774 16.4788C28.734 15.5676 28.509 14.299 27.5708 13.6429C27.3601 13.4951 27.2892 13.3452 27.2912 13.0992C27.3003 11.6189 27.2881 10.1377 27.2963 8.65748C27.3054 6.90793 28.8799 5.75675 30.5364 6.30349C31.2011 6.52218 31.8627 6.76922 32.4899 7.076C33.8688 7.75132 34.2397 9.55655 33.2822 10.7513C33.1515 10.9143 33.0198 10.9811 32.7989 10.9467C31.8921 10.8029 31.037 11.2484 30.6357 12.0513C30.2376 12.8471 30.3926 13.8028 31.0207 14.4255C31.6449 15.0441 32.5912 15.2041 33.3673 14.8244C34.1849 14.4245 34.6429 13.5811 34.5071 12.678C34.4767 12.4735 34.5294 12.353 34.6733 12.2173C36.0239 10.9406 37.8294 11.1735 38.7058 12.8096C39.2175 13.7654 39.6542 14.7738 40.0149 15.7964C40.5822 17.4062 39.4698 18.9269 37.7463 18.9411C35.0614 18.9624 32.3764 18.9492 29.6914 18.9502C28.5658 18.9502 27.4411 18.9502 26.3155 18.9502V18.9523L26.3175 18.9502Z" fill="#9F50E9"/>
</svg>
