<svg width="1075" height="972" viewBox="0 0 1075 972" fill="none" xmlns="http://www.w3.org/2000/svg">
<path d="M60 0C26.8629 8.53645e-06 0 26.8629 0 60V720.625C0 716.4 1.33826 712.284 3.82227 708.866L106.448 567.673C110.211 562.495 116.225 559.432 122.626 559.432H218.15C229.196 559.432 238.15 568.386 238.15 579.432V833.79C238.15 838.357 239.713 842.785 242.579 846.341L334.762 960.705C339.108 966.097 344.601 972 351.527 972H1015C1048.14 972 1075 945.137 1075 912V587.27C1075 577.658 1071.54 568.366 1065.25 561.097L586.531 7.84473C583.08 3.85619 578.699 0 573.425 0H60Z" fill="#C4C4C4"/>
</svg>
