<svg width="14" height="14" viewBox="0 0 14 14" fill="none" xmlns="http://www.w3.org/2000/svg">
<path d="M4.5 12.5H0.5V11C0.507961 10.2378 0.708977 9.49004 1.08427 8.82658C1.45957 8.16313 1.9969 7.60561 2.64607 7.20612C3.29525 6.80663 4.03509 6.57819 4.79648 6.54215C5.55788 6.5061 6.31599 6.66362 7 7M10.5 7.5V13.5M7.5 10.5H13.5M7.25 2.75C7.25 3.99264 6.24264 5 5 5C3.75736 5 2.75 3.99264 2.75 2.75C2.75 1.50736 3.75736 0.5 5 0.5C6.24264 0.5 7.25 1.50736 7.25 2.75Z" stroke="#202020" stroke-linecap="round" stroke-linejoin="round"/>
</svg>
