<svg width="14" height="12" viewBox="0 0 14 12" fill="none" xmlns="http://www.w3.org/2000/svg">
<path d="M11 9H4C3.73478 9 3.48043 8.89464 3.29289 8.70711C3.10536 8.51957 3 8.26522 3 8V3M9 11.5H1.5C1.23478 11.5 0.98043 11.3946 0.792893 11.2071C0.605357 11.0196 0.5 10.7652 0.5 10.5V5M6.5 0.5H12.5C13.0523 0.5 13.5 0.947715 13.5 1.5V5.5C13.5 6.05228 13.0523 6.5 12.5 6.5H6.5C5.94772 6.5 5.5 6.05228 5.5 5.5V1.5C5.5 0.947715 5.94772 0.5 6.5 0.5Z" stroke="#202020" stroke-linecap="round" stroke-linejoin="round"/>
</svg>
